<?xml version="1.0" encoding="UTF-8" standalone="no"?>
<!DOCTYPE svg PUBLIC "-//W3C//DTD SVG 1.1//EN"
 "http://www.w3.org/Graphics/SVG/1.1/DTD/svg11.dtd">
<!-- Generated by graphviz version 12.2.1 (20241206.2353)
 -->
<!-- Pages: 1 -->
<svg width="368pt" height="147pt"
 viewBox="0.00 0.00 368.15 147.26" xmlns="http://www.w3.org/2000/svg" xmlns:xlink="http://www.w3.org/1999/xlink">
<g id="graph0" class="graph" transform="scale(1 1) rotate(0) translate(4 143.26)">
<polygon fill="white" stroke="none" points="-4,4 -4,-143.26 364.15,-143.26 364.15,4 -4,4"/>
<text text-anchor="middle" x="180.07" y="-7.2" font-family="Times New Roman,serif" font-size="14.00">DFA Graph</text>
<!-- qi -->
<g id="node1" class="node">
<title>qi</title>
<ellipse fill="black" stroke="black" cx="1.8" cy="-80.63" rx="1.8" ry="1.8"/>
</g>
<!-- q0 -->
<g id="node2" class="node">
<title>q0</title>
<ellipse fill="none" stroke="black" cx="82.98" cy="-80.63" rx="20.13" ry="20.13"/>
<text text-anchor="middle" x="82.98" y="-75.58" font-family="Times New Roman,serif" font-size="14.00">q0</text>
</g>
<!-- qi&#45;&gt;q0 -->
<g id="edge1" class="edge">
<title>qi&#45;&gt;q0</title>
<path fill="none" stroke="black" d="M3.92,-80.63C9.14,-80.63 31.69,-80.63 51.22,-80.63"/>
<polygon fill="black" stroke="black" points="51,-84.13 61,-80.63 51,-77.13 51,-84.13"/>
<text text-anchor="middle" x="33.23" y="-83.83" font-family="Times New Roman,serif" font-size="14.00">start</text>
</g>
<!-- q0&#45;&gt;q0 -->
<g id="edge2" class="edge">
<title>q0&#45;&gt;q0</title>
<path fill="none" stroke="black" d="M75.52,-99.47C74.25,-109.56 76.74,-118.76 82.98,-118.76 86.69,-118.76 89.07,-115.52 90.13,-110.77"/>
<polygon fill="black" stroke="black" points="93.62,-111.07 90.4,-100.98 86.62,-110.88 93.62,-111.07"/>
<text text-anchor="middle" x="82.98" y="-121.96" font-family="Times New Roman,serif" font-size="14.00">a</text>
</g>
<!-- q1 -->
<g id="node3" class="node">
<title>q1</title>
<ellipse fill="none" stroke="black" cx="165.99" cy="-80.63" rx="20.13" ry="20.13"/>
<text text-anchor="middle" x="165.99" y="-75.58" font-family="Times New Roman,serif" font-size="14.00">q1</text>
</g>
<!-- q0&#45;&gt;q1 -->
<g id="edge3" class="edge">
<title>q0&#45;&gt;q1</title>
<path fill="none" stroke="black" d="M103.59,-80.63C112.75,-80.63 123.86,-80.63 134.11,-80.63"/>
<polygon fill="black" stroke="black" points="134.05,-84.13 144.05,-80.63 134.05,-77.13 134.05,-84.13"/>
<text text-anchor="middle" x="124.49" y="-83.83" font-family="Times New Roman,serif" font-size="14.00">b</text>
</g>
<!-- q1&#45;&gt;q1 -->
<g id="edge4" class="edge">
<title>q1&#45;&gt;q1</title>
<path fill="none" stroke="black" d="M158.53,-99.47C157.26,-109.56 159.75,-118.76 165.99,-118.76 169.7,-118.76 172.08,-115.52 173.14,-110.77"/>
<polygon fill="black" stroke="black" points="176.63,-111.07 173.41,-100.98 169.64,-110.88 176.63,-111.07"/>
<text text-anchor="middle" x="165.99" y="-121.96" font-family="Times New Roman,serif" font-size="14.00">a</text>
</g>
<!-- q2 -->
<g id="node4" class="node">
<title>q2</title>
<ellipse fill="none" stroke="black" cx="249.01" cy="-80.63" rx="20.13" ry="20.13"/>
<text text-anchor="middle" x="249.01" y="-75.58" font-family="Times New Roman,serif" font-size="14.00">q2</text>
</g>
<!-- q1&#45;&gt;q2 -->
<g id="edge5" class="edge">
<title>q1&#45;&gt;q2</title>
<path fill="none" stroke="black" d="M186.6,-80.63C195.76,-80.63 206.87,-80.63 217.12,-80.63"/>
<polygon fill="black" stroke="black" points="217.06,-84.13 227.06,-80.63 217.06,-77.13 217.06,-84.13"/>
<text text-anchor="middle" x="207.5" y="-83.83" font-family="Times New Roman,serif" font-size="14.00">b</text>
</g>
<!-- q2&#45;&gt;q2 -->
<g id="edge6" class="edge">
<title>q2&#45;&gt;q2</title>
<path fill="none" stroke="black" d="M241.54,-99.47C240.28,-109.56 242.76,-118.76 249.01,-118.76 252.71,-118.76 255.09,-115.52 256.15,-110.77"/>
<polygon fill="black" stroke="black" points="259.65,-111.07 256.42,-100.98 252.65,-110.88 259.65,-111.07"/>
<text text-anchor="middle" x="249.01" y="-121.96" font-family="Times New Roman,serif" font-size="14.00">a</text>
</g>
<!-- q3 -->
<g id="node5" class="node">
<title>q3</title>
<ellipse fill="none" stroke="green" cx="336.02" cy="-80.63" rx="20.13" ry="20.13"/>
<ellipse fill="none" stroke="green" cx="336.02" cy="-80.63" rx="24.13" ry="24.13"/>
<text text-anchor="middle" x="336.02" y="-75.58" font-family="Times New Roman,serif" font-size="14.00">q3</text>
</g>
<!-- q2&#45;&gt;q3 -->
<g id="edge7" class="edge">
<title>q2&#45;&gt;q3</title>
<path fill="none" stroke="black" d="M269.3,-80.63C278.41,-80.63 289.57,-80.63 300.1,-80.63"/>
<polygon fill="black" stroke="black" points="300.05,-84.13 310.05,-80.63 300.05,-77.13 300.05,-84.13"/>
<text text-anchor="middle" x="290.51" y="-83.83" font-family="Times New Roman,serif" font-size="14.00">b</text>
</g>
<!-- q3&#45;&gt;q3 -->
<g id="edge8" class="edge">
<title>q3&#45;&gt;q3</title>
<path fill="none" stroke="black" d="M327.62,-103.6C326.82,-113.88 329.62,-122.76 336.02,-122.76 339.82,-122.76 342.35,-119.63 343.61,-114.93"/>
<polygon fill="black" stroke="black" points="347.09,-115.33 344.31,-105.11 340.11,-114.84 347.09,-115.33"/>
<text text-anchor="middle" x="336.02" y="-125.96" font-family="Times New Roman,serif" font-size="14.00">a+b</text>
</g>
</g>
</svg>
