<?xml version="1.0" encoding="UTF-8" standalone="no"?>
<!DOCTYPE svg PUBLIC "-//W3C//DTD SVG 1.1//EN"
 "http://www.w3.org/Graphics/SVG/1.1/DTD/svg11.dtd">
<!-- Generated by graphviz version 12.2.1 (20241206.2353)
 -->
<!-- Pages: 1 -->
<svg width="585pt" height="232pt"
 viewBox="0.00 0.00 585.42 231.57" xmlns="http://www.w3.org/2000/svg" xmlns:xlink="http://www.w3.org/1999/xlink">
<g id="graph0" class="graph" transform="scale(1 1) rotate(0) translate(4 227.57)">
<polygon fill="white" stroke="none" points="-4,4 -4,-227.57 581.42,-227.57 581.42,4 -4,4"/>
<!-- qi -->
<g id="node1" class="node">
<title>qi</title>
<ellipse fill="black" stroke="black" cx="1.8" cy="-83" rx="1.8" ry="1.8"/>
</g>
<!-- q0 -->
<g id="node2" class="node">
<title>q0</title>
<ellipse fill="none" stroke="black" cx="82.98" cy="-83" rx="20.13" ry="20.13"/>
<text text-anchor="middle" x="82.98" y="-77.95" font-family="Times New Roman,serif" font-size="14.00">q0</text>
</g>
<!-- qi&#45;&gt;q0 -->
<g id="edge1" class="edge">
<title>qi&#45;&gt;q0</title>
<path fill="none" stroke="black" d="M3.92,-83C9.14,-83 31.69,-83 51.22,-83"/>
<polygon fill="black" stroke="black" points="51,-86.5 61,-83 51,-79.5 51,-86.5"/>
<text text-anchor="middle" x="33.22" y="-86.2" font-family="Times New Roman,serif" font-size="14.00">start</text>
</g>
<!-- q0&#45;&gt;q0 -->
<g id="edge2" class="edge">
<title>q0&#45;&gt;q0</title>
<path fill="none" stroke="black" d="M74.1,-101.44C72.44,-111.69 75.4,-121.13 82.98,-121.13 87.6,-121.13 90.5,-117.63 91.69,-112.57"/>
<polygon fill="black" stroke="black" points="95.19,-113.01 91.84,-102.95 88.19,-112.9 95.19,-113.01"/>
<text text-anchor="middle" x="82.98" y="-124.33" font-family="Times New Roman,serif" font-size="14.00">f+l+a+s</text>
</g>
<!-- q1 -->
<g id="node3" class="node">
<title>q1</title>
<ellipse fill="none" stroke="black" cx="191.49" cy="-123" rx="20.13" ry="20.13"/>
<text text-anchor="middle" x="191.49" y="-117.95" font-family="Times New Roman,serif" font-size="14.00">q1</text>
</g>
<!-- q0&#45;&gt;q1 -->
<g id="edge3" class="edge">
<title>q0&#45;&gt;q1</title>
<path fill="none" stroke="black" d="M101.13,-91.95C107.34,-95.02 114.46,-98.35 121.11,-101 133.96,-106.12 148.51,-110.89 160.96,-114.66"/>
<polygon fill="black" stroke="black" points="159.65,-117.93 170.23,-117.41 161.64,-111.21 159.65,-117.93"/>
<text text-anchor="middle" x="137.24" y="-115.42" font-family="Times New Roman,serif" font-size="14.00">k</text>
</g>
<!-- q1&#45;&gt;q0 -->
<g id="edge4" class="edge">
<title>q1&#45;&gt;q0</title>
<path fill="none" stroke="black" d="M180.49,-105.64C174.06,-96.31 164.78,-85.69 153.36,-80.5 141.18,-74.97 126.52,-74.7 113.81,-76.18"/>
<polygon fill="black" stroke="black" points="113.65,-72.66 104.32,-77.68 114.75,-79.57 113.65,-72.66"/>
<text text-anchor="middle" x="137.24" y="-83.7" font-family="Times New Roman,serif" font-size="14.00">f+a+s</text>
</g>
<!-- q1&#45;&gt;q1 -->
<g id="edge5" class="edge">
<title>q1&#45;&gt;q1</title>
<path fill="none" stroke="black" d="M182.01,-141.05C180.08,-151.45 183.24,-161.13 191.49,-161.13 196.52,-161.13 199.66,-157.54 200.91,-152.37"/>
<polygon fill="black" stroke="black" points="204.41,-152.58 200.97,-142.56 197.41,-152.54 204.41,-152.58"/>
<text text-anchor="middle" x="191.49" y="-164.33" font-family="Times New Roman,serif" font-size="14.00">k</text>
</g>
<!-- q2 -->
<g id="node4" class="node">
<title>q2</title>
<ellipse fill="none" stroke="black" cx="298.51" cy="-190" rx="20.13" ry="20.13"/>
<text text-anchor="middle" x="298.51" y="-184.95" font-family="Times New Roman,serif" font-size="14.00">q2</text>
</g>
<!-- q1&#45;&gt;q2 -->
<g id="edge6" class="edge">
<title>q1&#45;&gt;q2</title>
<path fill="none" stroke="black" d="M210.47,-130.65C224.56,-136.99 244.39,-146.69 260.37,-157.5 265.3,-160.83 270.29,-164.75 274.95,-168.69"/>
<polygon fill="black" stroke="black" points="272.43,-171.14 282.24,-175.14 277.07,-165.9 272.43,-171.14"/>
<text text-anchor="middle" x="245" y="-160.7" font-family="Times New Roman,serif" font-size="14.00">l</text>
</g>
<!-- q2&#45;&gt;q0 -->
<g id="edge7" class="edge">
<title>q2&#45;&gt;q0</title>
<path fill="none" stroke="black" d="M280.23,-199.17C274.13,-201.94 267.11,-204.61 260.37,-206 220.76,-214.17 205.46,-208.77 171.36,-187 140.58,-167.34 115.06,-133.41 99.7,-109.66"/>
<polygon fill="black" stroke="black" points="102.84,-108.08 94.56,-101.46 96.91,-111.79 102.84,-108.08"/>
<text text-anchor="middle" x="191.49" y="-210.27" font-family="Times New Roman,serif" font-size="14.00">f+l+s</text>
</g>
<!-- q2&#45;&gt;q1 -->
<g id="edge8" class="edge">
<title>q2&#45;&gt;q1</title>
<path fill="none" stroke="black" d="M277.93,-189C263.54,-187.45 244.05,-183.58 229.62,-174 220.61,-168.01 213.02,-159.05 207.1,-150.3"/>
<polygon fill="black" stroke="black" points="210.18,-148.62 201.94,-141.97 204.23,-152.31 210.18,-148.62"/>
<text text-anchor="middle" x="245" y="-189.11" font-family="Times New Roman,serif" font-size="14.00">k</text>
</g>
<!-- q3 -->
<g id="node5" class="node">
<title>q3</title>
<ellipse fill="none" stroke="black" cx="381.52" cy="-131" rx="20.13" ry="20.13"/>
<text text-anchor="middle" x="381.52" y="-125.95" font-family="Times New Roman,serif" font-size="14.00">q3</text>
</g>
<!-- q2&#45;&gt;q3 -->
<g id="edge9" class="edge">
<title>q2&#45;&gt;q3</title>
<path fill="none" stroke="black" d="M315.51,-178.34C326.94,-170.02 342.54,-158.66 355.59,-149.16"/>
<polygon fill="black" stroke="black" points="357.3,-152.24 363.32,-143.52 353.18,-146.58 357.3,-152.24"/>
<text text-anchor="middle" x="340.01" y="-165.47" font-family="Times New Roman,serif" font-size="14.00">a</text>
</g>
<!-- q3&#45;&gt;q0 -->
<g id="edge10" class="edge">
<title>q3&#45;&gt;q0</title>
<path fill="none" stroke="black" d="M367.92,-115.83C361.34,-108.95 352.72,-101.38 343.39,-97 266.22,-60.79 238.41,-76.79 153.36,-71 139.06,-70.03 135.27,-68.77 121.11,-71 118.46,-71.42 115.74,-71.99 113.03,-72.67"/>
<polygon fill="black" stroke="black" points="112.27,-69.25 103.66,-75.43 114.25,-75.96 112.27,-69.25"/>
<text text-anchor="middle" x="245" y="-76.34" font-family="Times New Roman,serif" font-size="14.00">f+l+a</text>
</g>
<!-- q3&#45;&gt;q1 -->
<g id="edge11" class="edge">
<title>q3&#45;&gt;q1</title>
<path fill="none" stroke="black" d="M360.93,-130.17C328.23,-128.78 262.27,-125.97 223.3,-124.31"/>
<polygon fill="black" stroke="black" points="223.56,-120.82 213.42,-123.89 223.26,-127.81 223.56,-120.82"/>
<text text-anchor="middle" x="298.51" y="-131.51" font-family="Times New Roman,serif" font-size="14.00">k</text>
</g>
<!-- q4 -->
<g id="node6" class="node">
<title>q4</title>
<ellipse fill="none" stroke="black" cx="463.03" cy="-83" rx="20.13" ry="20.13"/>
<text text-anchor="middle" x="463.03" y="-77.95" font-family="Times New Roman,serif" font-size="14.00">q4</text>
</g>
<!-- q3&#45;&gt;q4 -->
<g id="edge12" class="edge">
<title>q3&#45;&gt;q4</title>
<path fill="none" stroke="black" d="M399.38,-120.82C409.92,-114.46 423.72,-106.13 435.69,-98.9"/>
<polygon fill="black" stroke="black" points="437.14,-102.11 443.9,-93.95 433.53,-96.12 437.14,-102.11"/>
<text text-anchor="middle" x="422.27" y="-111.64" font-family="Times New Roman,serif" font-size="14.00">s</text>
</g>
<!-- q4&#45;&gt;q0 -->
<g id="edge13" class="edge">
<title>q4&#45;&gt;q0</title>
<path fill="none" stroke="black" d="M454.28,-64.58C442.6,-40.13 418.04,0 382.52,0 190.49,0 190.49,0 190.49,0 152.83,0 120.48,-32.69 101.62,-57.04"/>
<polygon fill="black" stroke="black" points="98.88,-54.87 95.74,-64.99 104.5,-59.03 98.88,-54.87"/>
<text text-anchor="middle" x="298.51" y="-3.2" font-family="Times New Roman,serif" font-size="14.00">l+a+s</text>
</g>
<!-- q4&#45;&gt;q1 -->
<g id="edge14" class="edge">
<title>q4&#45;&gt;q1</title>
<path fill="none" stroke="black" d="M442.82,-85.85C396.67,-92.7 279.23,-110.13 223.17,-118.45"/>
<polygon fill="black" stroke="black" points="222.75,-114.97 213.37,-119.9 223.78,-121.9 222.75,-114.97"/>
<text text-anchor="middle" x="340.01" y="-104.36" font-family="Times New Roman,serif" font-size="14.00">k</text>
</g>
<!-- q5 -->
<g id="node7" class="node">
<title>q5</title>
<ellipse fill="none" stroke="green" cx="547.79" cy="-83" rx="20.13" ry="20.13"/>
<ellipse fill="none" stroke="green" cx="547.79" cy="-83" rx="24.13" ry="24.13"/>
<text text-anchor="middle" x="547.79" y="-77.95" font-family="Times New Roman,serif" font-size="14.00">q5</text>
</g>
<!-- q4&#45;&gt;q5 -->
<g id="edge15" class="edge">
<title>q4&#45;&gt;q5</title>
<path fill="none" stroke="black" d="M483.64,-83C492.07,-83 502.18,-83 511.82,-83"/>
<polygon fill="black" stroke="black" points="511.68,-86.5 521.68,-83 511.68,-79.5 511.68,-86.5"/>
<text text-anchor="middle" x="503.41" y="-86.2" font-family="Times New Roman,serif" font-size="14.00">f</text>
</g>
<!-- q5&#45;&gt;q5 -->
<g id="edge16" class="edge">
<title>q5&#45;&gt;q5</title>
<path fill="none" stroke="black" d="M539.6,-105.97C538.82,-116.24 541.55,-125.13 547.79,-125.13 551.5,-125.13 553.97,-122 555.2,-117.3"/>
<polygon fill="black" stroke="black" points="558.68,-117.7 555.88,-107.48 551.69,-117.21 558.68,-117.7"/>
<text text-anchor="middle" x="547.79" y="-128.33" font-family="Times New Roman,serif" font-size="14.00">f+l+a+s+k</text>
</g>
</g>
</svg>
